HIERARCHY
ROOT Hips
{
  OFFSET 36.6023 99.2877 -14.6442
  CHANNELS 6 Xposition Yposition Zposition Zrotation Xrotation Yrotation
  JOINT RightUpLeg
  {
    OFFSET -8.9458 -8.66707 0.101652
    CHANNELS 3 Zrotation Xrotation Yrotation
    JOINT RightLeg
    {
      OFFSET 0 -44.4227 1.3727
      CHANNELS 3 Zrotation Xrotation Yrotation
      JOINT RightFoot
      {
        OFFSET 0.253549 -42.0924 -1.46059
        CHANNELS 3 Zrotation Xrotation Yrotation
        JOINT RightToes
        {
          OFFSET 0.04 -4.41509 8.4991
          CHANNELS 3 Zrotation Xrotation Yrotation
          End Site
          {
            OFFSET -0.08 -0.137448 9.77979
          }
        }
      }
    }
  }
  JOINT Spine
  {
    OFFSET 0 11.8905 0
    CHANNELS 3 Zrotation Xrotation Yrotation
    JOINT Spine1
    {
      OFFSET 0 25.6574 0.127663
      CHANNELS 3 Zrotation Xrotation Yrotation
      JOINT HEad
      {
        OFFSET 0 8.73416 0.011341
        CHANNELS 3 Zrotation Xrotation Yrotation
        End Site
        {
          OFFSET -0.29 12.7742 2.51395
        }
      }
      JOINT LeftShoulder1
      {
        OFFSET 8.99 -0.362252 -0.22
        CHANNELS 3 Zrotation Xrotation Yrotation
        JOINT LeftArm
        {
          OFFSET 10.2827 -0.00338 0.322123
          CHANNELS 3 Zrotation Xrotation Yrotation
          JOINT LeftForeArm
          {
            OFFSET 32.7669 0.099144 -1.42434
            CHANNELS 3 Zrotation Xrotation Yrotation
            JOINT LeftHand
            {
              OFFSET 27.5643 0.085362 1.02216
              CHANNELS 3 Zrotation Xrotation Yrotation
              End Site
              {
                OFFSET 16.7443 -0.6 1.50291
              }
            }
          }
        }
      }
      JOINT RightShoulder
      {
        OFFSET -8.99 -0.362252 -0.22
        CHANNELS 3 Zrotation Xrotation Yrotation
        JOINT RightArm
        {
          OFFSET -10.2827 -0.00338 0.322123
          CHANNELS 3 Zrotation Xrotation Yrotation
          JOINT RightForeArm
          {
            OFFSET -32.8971 0.099144 -1.42434
            CHANNELS 3 Zrotation Xrotation Yrotation
            JOINT RightHand
            {
              OFFSET -30.0137 1.42257 -0.284231
              CHANNELS 3 Zrotation Xrotation Yrotation
              End Site
              {
                OFFSET -16.6312 -0.6 1.50291
              }
            }
          }
        }
      }
    }
  }
  JOINT LeftUpLeg
  {
    OFFSET 8.9458 -8.66707 0.101652
    CHANNELS 3 Zrotation Xrotation Yrotation
    JOINT LeftLeg
    {
      OFFSET 0 -44.4227 1.3727
      CHANNELS 3 Zrotation Xrotation Yrotation
      JOINT LeftFoot
      {
        OFFSET -0.253549 -42.0924 -1.46059
        CHANNELS 3 Zrotation Xrotation Yrotation
        JOINT LeftToes
        {
          OFFSET -0.04 -4.41509 8.4991
          CHANNELS 3 Zrotation Xrotation Yrotation
          End Site
          {
            OFFSET 0.08 -0.047448 9.77979
          }
        }
      }
    }
  }
}
MOTION
Frames:	12
Frame Time:	0.0166667
25.0533 98.886 -22.6867 6.03803 11.2883 156.346 -35.9808 2.65152 7.38066 50.4651 23.2332 -34.5801 -24.9162 0.282117 -2.2283 0.0462048 0.000533403 0.662642 -7.2765 27.1041 -0.0439924 -0.00956009 0.00347 -0.0212961 -18.5618 24.4637 19.7883 0 3.18055e-015 -0 -174.009 -57.6784 -143.248 -94.1686 69.9385 -20.9354 17.1179 18.3527 -9.09784 16.6917 9.20139 -2.65995 104.454 -1.77274 80.0639 18.8798 42.4376 77.2647 17.7351 25.4747 5.22097 11.469 0.917813 -23.61 -26.8164 2.85669 63.9691 -35.1252 -3.3545 -1.29796 -9.35095e-009 1.56019e-007 -4.87131e-009 
24.4691 98.9393 -22.8453 6.52811 10.9972 156.005 -35.8924 0.28635 9.85063 52.5967 23.295 -37.1357 -25.1173 0.166592 -2.13303 0.0462048 0.000533403 0.662642 -6.68266 26.9363 1.06563 -0.00956009 0.00347 -0.0212961 -17.5154 23.9014 18.3217 -7.95139e-016 1.59028e-015 -0 -171.717 -57.2468 -140.708 -93.5708 70.3065 -21.3617 17.2631 18.365 -8.95039 16.6826 9.14214 -3.51176 105.043 -2.05301 80.3552 18.3804 43.0515 78.5068 17.7798 25.1737 5.00151 11.6254 1.23923 -20.2503 -26.0028 4.10786 61.7005 -36.9894 -3.21256 -1.26107 -9.35094e-009 1.56019e-007 -4.87131e-009 
23.9303 99.1328 -22.9091 6.98257 10.6815 155.708 -35.46 -1.6247 12.1432 53.7842 23.0448 -39.0998 -25.1139 0.215319 -2.10833 0.0462048 0.000533403 0.662642 -6.14783 26.764 1.99234 -0.00956009 0.00347 -0.0212961 -16.5361 23.3343 17.0212 0 0 -3.18055e-015 -169.862 -56.7004 -138.686 -93.0815 70.69 -21.727 17.3588 18.4813 -8.79841 16.6799 9.10892 -4.09633 105.601 -2.35598 80.7049 17.8295 43.6381 79.7602 17.8552 25.0467 4.80044 11.9606 1.10693 -17.094 -25.9758 5.1939 59.7076 -35.2676 -3.40471 -1.27918 -9.35094e-009 1.56019e-007 -4.87132e-009 
23.4555 99.3627 -22.9022 7.39319 10.3512 155.472 -34.8541 -3.14705 14.2753 54.4182 22.6957 -40.6909 -24.9071 0.258436 -2.09118 0.0462048 0.000533403 0.662642 -5.6623 26.591 2.73819 -0.00956009 0.00347 -0.0212961 -15.6267 22.7795 15.8733 -3.53113e-031 3.18055e-015 6.36111e-015 -168.395 -56.0715 -137.101 -92.6897 71.0861 -22.0298 17.4903 18.4742 -8.578 16.6755 9.09451 -4.44355 106.135 -2.67678 81.1086 17.2173 44.1952 81.021 17.8678 24.7953 4.62016 12.2732 0.912211 -14.21 -25.7417 6.33099 57.8497 -33.6794 -3.55082 -1.27512 -9.35094e-009 1.56019e-007 -4.87131e-009 
23.0502 99.6208 -22.8369 7.75538 10.0185 155.31 -34.1216 -4.29623 16.2484 54.6176 22.296 -41.9308 -24.5897 0.299276 -2.08049 0.0462048 0.000533403 0.662642 -5.21796 26.4214 3.31038 -0.00956009 0.00347 -0.0212961 -14.789 22.2526 14.8648 7.95139e-016 1.59028e-015 -0 -167.264 -55.3897 -135.876 -92.4 71.4904 -22.2564 17.6042 18.5147 -8.35283 16.6643 9.09147 -4.59009 106.646 -3.0065 81.5529 16.5364 44.7249 82.2848 17.8931 24.6377 4.46298 12.5501 0.655094 -11.6182 -25.3591 7.44928 56.1199 -32.1516 -3.6774 -1.26582 -9.35095e-009 1.56019e-007 -4.87132e-009 
22.7206 99.8962 -22.7251 8.06727 9.69569 155.231 -33.3081 -5.09721 18.0635 54.4895 21.861 -42.8536 -24.1965 0.336387 -2.07265 0.0462048 0.000533403 0.662642 -4.80947 26.2586 3.72042 -0.00956009 0.00347 -0.0212961 -14.024 21.7681 13.9834 7.95139e-016 -1.59028e-015 -0 -166.425 -54.6831 -134.941 -92.2194 71.8953 -22.3939 17.7482 18.4769 -8.09129 16.6382 9.09148 -4.56977 107.135 -3.3392 82.0183 15.7845 45.2279 83.5469 17.8794 24.3989 4.33714 12.7827 0.342651 -9.33049 -24.8699 8.50478 54.5132 -30.6389 -3.79069 -1.25308 -9.35094e-009 1.56019e-007 -4.87131e-009 
22.4713 100.176 -22.5757 8.32841 9.39431 155.235 -32.4508 -5.57995 19.7198 54.1216 21.3858 -43.4968 -23.7902 0.368507 -2.06507 0.0462048 0.000533403 0.662642 -4.4353 26.1038 3.98295 -0.00956009 0.00347 -0.0212961 -13.3316 21.3387 13.2181 0 1.59028e-015 -0 -165.836 -53.9786 -134.237 -92.1422 72.2956 -22.4442 17.878 18.4752 -7.83221 16.5835 9.09383 -4.41118 107.608 -3.67109 82.4831 14.9625 45.7052 84.8036 17.8784 24.2059 4.23616 12.968 -0.0140912 -7.35069 -24.3056 9.47578 53.0259 -29.1173 -3.89447 -1.23675 -9.35095e-009 1.56019e-007 -4.87132e-009 
22.3035 100.448 -22.3952 8.5387 9.124 155.322 -31.5842 -5.77621 21.2168 53.5804 20.8536 -43.9017 -23.4005 0.392905 -2.05495 0.0462048 0.000533403 0.662642 -4.09783 25.9573 4.11455 -0.00956009 0.00347 -0.0212961 -12.7105 20.9743 12.5598 1.59028e-015 0 3.18055e-015 -165.451 -53.2994 -133.702 -92.1225 72.6919 -22.4484 18.0103 18.4503 -7.56095 16.4848 9.09901 -4.14326 108.071 -3.99455 82.928 14.0763 46.1551 86.0512 17.8525 23.9621 4.16876 13.1054 -0.402525 -5.67476 -23.6904 10.3531 51.655 -27.576 -3.98996 -1.21553 -9.35095e-009 1.56019e-007 -4.87131e-009 
22.217 100.696 -22.1875 8.69704 8.89294 155.486 -30.7371 -5.72369 22.5525 52.9133 20.2583 -44.118 -23.0374 0.407713 -2.0402 0.0462048 0.000533403 0.662642 -3.80507 25.8192 4.13338 -0.00956009 0.00347 -0.0212961 -12.1579 20.6812 12.0015 -7.95139e-016 -3.18055e-015 3.18055e-015 -165.226 -52.663 -133.286 -92.1089 73.0925 -22.4528 18.1181 18.4617 -7.29155 16.3315 9.10837 -3.80177 108.53 -4.29448 83.3357 13.1348 46.578 87.2864 17.8358 23.7497 4.12183 13.1961 -0.812108 -4.29289 -23.0475 11.1374 50.4006 -26.011 -4.07754 -1.18823 -9.35094e-009 1.56019e-007 -4.87132e-009 
22.2079 100.912 -21.9563 8.80247 8.7072 155.719 -29.9325 -5.45813 23.7253 52.1486 19.5929 -44.1953 -22.6984 0.41093 -2.01923 0.0462048 0.000533403 0.662642 -3.56542 25.6896 4.0582 -0.00956009 0.00347 -0.0212961 -11.6694 20.4638 11.5357 -7.95139e-016 0 -0 -165.13 -52.0795 -132.951 -92.0732 73.5033 -22.4841 18.2037 18.4685 -7.02479 16.1455 9.12187 -3.42226 108.965 -4.56266 83.6918 12.1544 46.9762 88.5048 17.7816 23.51 4.10622 13.2419 -1.23385 -3.19207 -22.3982 11.8332 49.2664 -24.4216 -4.15646 -1.15368 -9.35095e-009 1.56019e-007 -4.87131e-009 
22.271 101.093 -21.7044 8.85561 8.57085 156.011 -29.1857 -5.01183 24.7357 51.3031 18.8532 -44.1788 -22.3822 0.401191 -1.99121 0.0462048 0.000533403 0.662642 -3.38458 25.5679 3.90936 -0.00956009 0.00347 -0.0212961 -11.2401 20.3254 11.153 7.95139e-016 -1.59028e-015 -3.18055e-015 -165.144 -51.5542 -132.684 -92.0326 73.9205 -22.5291 18.2513 18.487 -6.7663 15.9755 9.12905 -3.04102 109.335 -4.80165 83.9776 11.1576 47.3557 89.7007 17.7166 23.2906 4.10633 13.2466 -1.65837 -2.35724 -21.763 12.4443 48.2595 -22.8068 -4.22528 -1.11066 -9.35095e-009 1.56019e-007 -4.87131e-009 
22.4016 101.236 -21.4329 8.85854 8.4868 156.351 -28.506 -4.41455 25.5886 50.3922 18.04 -44.1072 -22.0879 0.377709 -1.95601 0.0462048 0.000533403 0.662642 -3.26691 25.4525 3.71011 -0.00956009 0.00347 -0.0212961 -10.8654 20.2694 10.8414 -7.95139e-016 0 -0 -165.259 -51.0919 -132.475 -92.0398 74.3318 -22.5435 18.2738 18.4836 -6.5134 15.8768 9.11489 -2.69489 109.594 -5.02245 84.1705 10.1694 47.7232 90.8692 17.6318 23.0624 4.12284 13.2161 -2.07573 -1.77086 -21.1632 12.9738 47.3879 -21.1649 -4.28201 -1.05807 -9.35095e-009 1.56019e-007 -4.87131e-009 
